# xmcd CD database file
#
# Track frame offsets:
#	150
#	19605
#	38290
#	54050
#	70820
#	87782
#	108067
#	123492
#	137775
#	156565
#	175840
#	193937
#
# Disc length: 2833 seconds
#
# Revision: 2
# Processed by: cddbd v1.5.2PL0 Copyright (c) Steve Scherf et al.
# Submitted via: CDex 1.70beta2
#
DISCID=930b0f0c
DTITLE=コナミ矩形波倶楽部 - (Konami) パーフェクト・セレクション ツインビー
DYEAR=1992
DGENRE=ゲーム音楽
TTITLE0=Mountain High
TTITLE1=天空の要塞ラピュタ
TTITLE2=FANTASTIC POWERS
TTITLE3=イーバ星人の攻撃
TTITLE4=SKY SWIMMER'S HEAVEN
TTITLE5=RECOLLECTIONS
TTITLE6=TWINBEE'S HOME TOWN SONG
TTITLE7=霧の向こうのパラダイス
TTITLE8=PRESET ''FUNKY'' BOSS
TTITLE9=イーバの神殿
TTITLE10=風の贈り物
TTITLE11=EVENING GLOW OF T3
EXTD=YEAR: 1992
EXTT0=
EXTT1=
EXTT2=
EXTT3=
EXTT4=
EXTT5=
EXTT6=
EXTT7=
EXTT8=
EXTT9=
EXTT10=
EXTT11=
PLAYORDER=
